<svg width="313" height="81" viewBox="0 0 313 81" fill="none" xmlns="http://www.w3.org/2000/svg">
<path d="M76.311 12.0446L77.3467 79.4286L60.9326 79.6809L60.3115 39.2697L45.8624 79.9126L32.616 80.1161L16.8272 39.842L17.4498 80.3493L1.03571 80.6015L0 13.2175L19.3897 12.9195L39.0165 59.2793L57.0173 12.3411L76.311 12.0446Z" fill="#0066FF"/>
<path d="M85.4736 52.4205C85.389 46.9172 86.3386 42.07 88.3224 37.879C90.3703 33.6871 93.1687 30.4437 96.7179 28.1489C100.267 25.854 104.249 24.6727 108.665 24.6048C112.44 24.5468 115.748 25.2641 118.587 26.7566C121.49 28.2482 123.729 30.23 125.303 32.7021L125.187 25.119L141.601 24.8667L142.424 78.4284L126.01 78.6807L125.893 71.0976C124.332 73.6179 122.123 75.668 119.267 77.2481C116.475 78.8272 113.191 79.6458 109.416 79.7038C105.064 79.7707 101.079 78.7118 97.4615 76.5272C93.8425 74.2785 90.9452 71.0907 88.7695 66.9636C86.6568 62.7716 85.5582 57.9239 85.4736 52.4205ZM125.598 51.8998C125.535 47.8043 124.334 44.5904 121.994 42.2581C119.718 39.9248 116.948 38.7832 113.684 38.8334C110.42 38.8835 107.655 40.1102 105.388 42.5133C103.183 44.8515 102.113 48.0683 102.176 52.1638C102.239 56.2593 103.409 59.5057 105.686 61.903C108.026 64.2353 110.828 65.3764 114.091 65.3263C117.355 65.2761 120.088 64.0499 122.292 61.6478C124.559 59.2447 125.661 55.9953 125.598 51.8998Z" fill="#0066FF"/>
<path d="M183.937 63.8687L184.151 77.787L175.8 77.9154C169.849 78.0068 165.187 76.6383 161.816 73.8098C158.443 70.9173 156.706 66.1754 156.604 59.5842L156.277 38.2747L149.75 38.3751L149.54 24.7447L156.067 24.6443L155.867 11.5899L172.281 11.3376L172.481 24.3921L183.232 24.2268L183.442 37.8572L172.691 38.0224L173.021 59.5239C173.046 61.1237 173.448 62.2697 174.226 62.9618C175.005 63.6539 176.29 63.9862 178.082 63.9587L183.937 63.8687Z" fill="#0066FF"/>
<path d="M209.022 32.7595C210.897 29.7863 213.261 27.4457 216.115 25.7376C218.968 23.9656 222.155 23.0525 225.674 22.9984L225.941 40.3723L221.43 40.4417C217.334 40.5046 214.276 41.4477 212.256 43.271C210.235 45.0303 209.258 48.1177 209.326 52.5331L209.708 77.3942L193.294 77.6465L192.471 24.0848L208.885 23.8325L209.022 32.7595Z" fill="#0066FF"/>
<path d="M241.698 17.7595C238.818 17.8038 236.438 17.0083 234.557 15.373C232.738 13.6727 231.81 11.5748 231.772 9.07905C231.732 6.51935 232.596 4.39383 234.362 2.70248C236.191 0.946163 238.545 0.0458725 241.425 0.00161134C244.241 -0.0416662 246.558 0.786823 248.376 2.48708C250.258 4.12236 251.218 6.21985 251.257 8.77955C251.296 11.2753 250.4 13.4013 248.571 15.1576C246.805 16.8489 244.514 17.7162 241.698 17.7595ZM249.943 23.2015L250.766 76.7631L234.352 77.0154L233.529 23.4537L249.943 23.2015Z" fill="#0066FF"/>
<path d="M294.337 76.0934L283.838 61.3731L275.428 76.3841L257.67 76.657L274.911 49.0288L256.366 23.1027L274.796 22.8194L285.294 37.4438L293.706 22.5288L311.464 22.2559L293.929 49.5046L312.767 75.8102L294.337 76.0934Z" fill="#0066FF"/>
</svg>
